<?xml version="1.0" encoding="utf-8"?>
<!-- Generator: Adobe Illustrator 28.3.0, SVG Export Plug-In . SVG Version: 6.00 Build 0)  -->
<svg version="1.1" id="Layer_1" xmlns="http://www.w3.org/2000/svg" xmlns:xlink="http://www.w3.org/1999/xlink" x="0px" y="0px"
	 viewBox="0 0 1000 700" style="enable-background:new 0 0 1000 700;" xml:space="preserve">
<style type="text/css">
	.st0{fill:url(#SVGID_1_);}
	.st1{fill:url(#SVGID_00000003809184572616855930000012619610248202713493_);}
	.st2{fill:url(#SVGID_00000127722537386597894730000004850949867293171621_);}
	.st3{fill:url(#SVGID_00000080190043301553667570000016642167602001368491_);}
	.st4{fill:url(#SVGID_00000140005753688158108400000013061385621624559511_);}
	.st5{fill:url(#SVGID_00000134963076510298172440000001205786776373302199_);}
	.st6{fill:#1A1A1A;}
	.st7{fill:url(#SVGID_00000139997373141223702800000007716118254648182955_);}
	.st8{fill:url(#SVGID_00000077324691413678888790000005075986915872183992_);}
	.st9{fill:url(#SVGID_00000030468611932055695290000015422474128605419960_);}
	.st10{fill:url(#SVGID_00000052073553404793097890000004417648418781689991_);}
	.st11{fill:url(#SVGID_00000102523313596318205420000003612570335189178514_);}
	.st12{fill:url(#SVGID_00000093867883854926033430000012276099733995903918_);}
	.st13{fill:url(#SVGID_00000052089003804085941730000013550259624246448312_);}
	.st14{fill:url(#SVGID_00000173155943765835556430000006009868782682979469_);}
	.st15{fill:url(#SVGID_00000153706771182632075080000007823015329169056918_);}
	.st16{fill:url(#SVGID_00000101089913957874054500000017365346139584061605_);}
	.st17{fill:url(#SVGID_00000054263839188457240160000001933879124734591376_);}
</style>
<g>
	<g>
		<linearGradient id="SVGID_1_" gradientUnits="userSpaceOnUse" x1="423.5764" y1="136.2716" x2="423.5764" y2="621.5223">
			<stop  offset="0" style="stop-color:#667EEA"/>
			<stop  offset="1" style="stop-color:#764BA2"/>
		</linearGradient>
		<path class="st0" d="M605.98,308.7c-1.19,0-2.31,0.21-3.46,0.34c-0.03-0.04-0.06-0.08-0.09-0.12
			c-3.75-5.04-7.49-10.28-11.22-15.71c-21.86-31.91-42.8-70.37-58.07-115.05c-3.5-10.22-6.66-20.78-9.51-31.64H212.3l2.09,17.67
			c27.4,232.42,177.67,377.4,238.12,422.78c0.03,0.02,0.05,0.04,0.08,0.06c0,0.07-0.02,0.12-0.02,0.19
			c0,13.55,9.33,24.91,21.92,28.03c0.43,0.1,0.87,0.2,1.31,0.29c0.88,0.17,1.78,0.31,2.69,0.4c0.95,0.1,1.91,0.15,2.88,0.15
			c0.44,0,0.89-0.01,1.33-0.04c0.26,0,0.51-0.02,0.77-0.05c0.16,0,0.33-0.01,0.49-0.03c0.35-0.03,0.7-0.07,1.05-0.12
			c0.02,0.01,0.04,0.01,0.06,0c0.4-0.05,0.79-0.11,1.18-0.18c0.02,0.01,0.04,0,0.06-0.01c0.29-0.04,0.59-0.1,0.88-0.16
			c0.47-0.09,0.93-0.2,1.39-0.32c0.47-0.12,0.92-0.25,1.37-0.39c0.46-0.14,0.9-0.29,1.35-0.45c11.1-4.01,19.01-14.64,19.01-27.12
			c0-0.07-0.02-0.13-0.02-0.19c-0.05-7.42-2.89-14.16-7.55-19.22c-1.51-1.65-3.2-3.13-5.05-4.4c-0.27-0.18-0.54-0.36-0.82-0.54
			c-0.01-0.02-0.03-0.03-0.05-0.03c-0.28-0.18-0.56-0.35-0.85-0.52c-0.88-0.51-1.79-0.98-2.73-1.4c-1.8-0.81-3.7-1.45-5.67-1.89
			c-0.21-0.05-0.41-0.09-0.62-0.13c-0.29-0.07-0.58-0.12-0.87-0.16c-0.21-0.04-0.43-0.07-0.64-0.1c-0.37-0.06-0.74-0.1-1.12-0.14
			c-0.45-0.05-0.91-0.08-1.36-0.1c-0.07-0.01-0.14-0.01-0.21-0.01c-0.46-0.03-0.92-0.04-1.38-0.04h-0.06
			c-0.48,0-0.95,0.01-1.43,0.04c-0.26,0.01-0.53,0.03-0.79,0.06c-3.35,0.28-6.54,1.17-9.48,2.49c-0.02-0.02-0.05-0.03-0.07-0.05
			c-52.13-39.37-190.08-173.23-221.38-382.73h251.71c19.06,60.1,47.84,110.1,77.24,149.37c0.42,0.56,0.83,1.06,1.25,1.61
			c0.03,0.04,0.07,0.09,0.1,0.13c-0.7,2.31-1.21,4.7-1.32,7.22c-0.02,0.36-0.03,0.71-0.03,1.07c0,8.47,3.65,16.09,9.45,21.38
			c0.69,0.62,1.4,1.21,2.14,1.76c0.9,0.68,1.85,1.3,2.83,1.87s2,1.08,3.05,1.53c1.05,0.45,2.13,0.84,3.24,1.17
			c0.97,0.28,1.96,0.51,2.97,0.7c1.68,0.31,3.41,0.47,5.19,0.47c1.78,0,3.51-0.16,5.19-0.47c1.01-0.19,2-0.42,2.97-0.7
			c1.11-0.33,2.19-0.72,3.24-1.17c1.05-0.45,2.06-0.96,3.04-1.53c0.98-0.57,1.93-1.19,2.83-1.87c0.74-0.55,1.45-1.14,2.14-1.76
			c5.81-5.29,9.46-12.91,9.46-21.38C634.85,321.62,621.92,308.7,605.98,308.7z M481.37,575.05c6.72,0,12.17,5.45,12.17,12.17
			c0,6.72-5.45,12.17-12.17,12.17c-6.72,0-12.17-5.45-12.17-12.17C469.2,580.5,474.65,575.05,481.37,575.05z M605.98,349.73
			c-6.72,0-12.17-5.44-12.17-12.17c0-6.72,5.45-12.17,12.17-12.17c6.72,0,12.17,5.45,12.17,12.17
			C618.15,344.29,612.7,349.73,605.98,349.73z"/>
		
			<linearGradient id="SVGID_00000160166307413585093720000009551228567637729930_" gradientUnits="userSpaceOnUse" x1="534.3914" y1="136.2726" x2="534.3914" y2="621.5226">
			<stop  offset="0" style="stop-color:#667EEA"/>
			<stop  offset="1" style="stop-color:#764BA2"/>
		</linearGradient>
		<path style="fill:url(#SVGID_00000160166307413585093720000009551228567637729930_);" d="M601.22,146.52
			c-0.49-0.74-1.02-1.45-1.58-2.14c-0.03-0.03-0.06-0.07-0.09-0.11c-0.16-0.19-0.32-0.38-0.48-0.57c-0.04-0.06-0.09-0.11-0.14-0.17
			c-0.49-0.58-1.02-1.13-1.55-1.66c-0.01-0.01-0.01-0.01-0.01-0.01c-0.26-0.26-0.52-0.51-0.78-0.76c-0.23-0.21-0.46-0.42-0.7-0.62
			c-0.26-0.22-0.52-0.44-0.78-0.66c-0.27-0.22-0.55-0.44-0.83-0.65c-0.37-0.28-0.74-0.54-1.12-0.8c-0.39-0.26-0.77-0.51-1.17-0.75
			c-0.32-0.19-0.65-0.38-0.98-0.57c-0.09-0.05-0.18-0.1-0.27-0.15c-0.39-0.21-0.78-0.41-1.19-0.6c-0.38-0.19-0.76-0.36-1.15-0.53
			c-0.78-0.33-1.58-0.63-2.39-0.89c-0.2-0.07-0.4-0.13-0.6-0.19c-1.35-0.41-2.74-0.72-4.16-0.92c-0.4-0.06-0.8-0.11-1.2-0.15
			c-0.45-0.05-0.9-0.08-1.35-0.1c-0.11-0.01-0.22-0.02-0.32-0.02c-0.41-0.02-0.81-0.03-1.22-0.03h-0.04c-1.48,0-2.94,0.11-4.37,0.33
			c-0.42,0.07-0.84,0.14-1.26,0.22c-0.54,0.11-1.06,0.23-1.59,0.36c-0.39,0.1-0.77,0.21-1.16,0.32c-0.37,0.11-0.74,0.23-1.1,0.36
			c-0.35,0.12-0.7,0.25-1.05,0.39c-10.75,4.2-18.35,14.66-18.35,26.89c0,15.95,12.92,28.87,28.87,28.87
			c10.09,0,18.95-5.2,24.11-13.05h113.5c-10.75,71.93-34.08,134.93-62.2,188.28c-5.09,9.64-10.33,18.98-15.68,27.99
			c-7.96,13.4-16.17,26.05-24.46,38.02c-19.08-10.8-39.73-24.32-60.05-41.04c-45.06-37.09-78.07-80.54-99.05-129.96
			c-4.37-10.27-8.13-20.84-11.45-31.64H318.2c2.8,10.26,5.95,20.83,9.52,31.64c6.74,20.46,14.91,41.75,24.82,63.36
			c31.17,67.99,84.85,148.54,175.63,206.21c1.93,1.23,3.96,2.42,5.93,3.62c0.01,0.01,0.02,0.01,0.03,0.02
			c0,0.09-0.03,0.18-0.03,0.27c0,0.33,0.01,0.65,0.02,0.98c0.01,0.24,0.02,0.48,0.03,0.73c0.01,0.4,0.04,0.8,0.09,1.19
			c0.03,0.31,0.07,0.62,0.11,0.93c0.07,0.53,0.15,1.04,0.25,1.56c0.08,0.48,0.18,0.95,0.31,1.41c0.06,0.26,0.12,0.5,0.19,0.76
			c0.14,0.51,0.29,1,0.45,1.5c0.03,0.13,0.08,0.26,0.13,0.38c0.14,0.41,0.3,0.83,0.46,1.24c0.16,0.41,0.34,0.81,0.52,1.21
			c0.24,0.57,0.52,1.13,0.82,1.68c0.1,0.18,0.2,0.37,0.3,0.56c0.18,0.33,0.37,0.65,0.57,0.97c0.13,0.22,0.27,0.44,0.42,0.65
			c0.13,0.2,0.26,0.4,0.4,0.6c0.16,0.25,0.33,0.49,0.51,0.72c0.19,0.26,0.39,0.52,0.59,0.77c0.06,0.08,0.12,0.17,0.2,0.25
			c0.22,0.28,0.46,0.56,0.7,0.84c0.18,0.21,0.37,0.42,0.55,0.62c0.19,0.21,0.38,0.41,0.58,0.61c0.21,0.22,0.43,0.43,0.65,0.64
			c0.43,0.42,0.88,0.83,1.35,1.22c0.18,0.16,0.36,0.32,0.56,0.47c0.53,0.43,1.07,0.83,1.62,1.21c0.24,0.17,0.49,0.34,0.74,0.5
			c0.25,0.17,0.51,0.33,0.77,0.49c0.29,0.18,0.58,0.35,0.88,0.51c0.05,0.03,0.1,0.06,0.15,0.08c0.2,0.11,0.4,0.22,0.61,0.33
			c0.72,0.38,1.45,0.72,2.2,1.04c0.36,0.15,0.73,0.3,1.11,0.43c0.99,0.37,2,0.68,3.03,0.93c0.39,0.1,0.78,0.19,1.17,0.27
			c0.39,0.08,0.78,0.16,1.18,0.22c0.18,0.03,0.37,0.06,0.55,0.08c0.37,0.06,0.75,0.1,1.14,0.14c0.48,0.05,0.97,0.09,1.46,0.11
			c0.5,0.03,0.99,0.04,1.49,0.04c0.49,0,0.97-0.01,1.46-0.04h0.04c0.44-0.02,0.89-0.05,1.33-0.1c0.08-0.01,0.16-0.01,0.24-0.02
			c0.24-0.03,0.47-0.05,0.7-0.09c0.79-0.1,1.56-0.23,2.33-0.4c0.34-0.07,0.67-0.15,1-0.23c0.12-0.03,0.24-0.06,0.35-0.1
			c0.38-0.09,0.76-0.2,1.13-0.32c0.96-0.3,1.9-0.64,2.81-1.04c0.38-0.16,0.75-0.33,1.12-0.51c0.3-0.14,0.6-0.29,0.89-0.45
			c0.19-0.09,0.38-0.2,0.56-0.3c0.03-0.02,0.07-0.03,0.1-0.05c0.31-0.17,0.61-0.35,0.9-0.53c0.33-0.2,0.65-0.4,0.97-0.61
			c0.12-0.08,0.23-0.16,0.35-0.24c0.3-0.2,0.6-0.42,0.89-0.64c0.17-0.12,0.34-0.25,0.51-0.39c0.42-0.32,0.83-0.65,1.23-1.01
			c0.06-0.04,0.11-0.09,0.16-0.14c0.2-0.17,0.4-0.34,0.59-0.53c0.5-0.46,0.99-0.95,1.46-1.46c0.12-0.12,0.24-0.25,0.36-0.39
			c0.02-0.02,0.04-0.04,0.06-0.07c0.25-0.28,0.49-0.56,0.73-0.85c0.3-0.36,0.58-0.72,0.86-1.09s0.54-0.75,0.8-1.13
			s0.51-0.77,0.75-1.17c0.22-0.37,0.44-0.73,0.64-1.11c0.03-0.05,0.05-0.09,0.08-0.14c0.16-0.3,0.32-0.61,0.48-0.92
			c0.46-0.93,0.88-1.89,1.23-2.87c1.15-3.09,1.77-6.44,1.77-9.93s-0.62-6.84-1.77-9.93c-0.35-0.98-0.77-1.94-1.23-2.87
			c-0.16-0.31-0.32-0.62-0.48-0.92c-0.02-0.04-0.05-0.08-0.06-0.12c-0.19-0.33-0.38-0.66-0.58-0.99c-0.26-0.44-0.54-0.88-0.83-1.31
			c-0.24-0.38-0.5-0.76-0.8-1.13c-0.28-0.37-0.56-0.73-0.86-1.09c-0.29-0.36-0.59-0.71-0.9-1.05c-0.32-0.34-0.63-0.67-0.96-1
			c-0.33-0.33-0.66-0.65-1-0.96c-0.34-0.3-0.69-0.6-1.04-0.91c0,0,0,0-0.01,0c-0.71-0.59-1.45-1.15-2.21-1.66h-0.01
			c-0.76-0.53-1.56-1.01-2.37-1.45c-0.01,0.01-0.01,0.01-0.01,0c-0.41-0.22-0.83-0.43-1.25-0.63c-0.84-0.42-1.71-0.78-2.59-1.1
			c-0.96-0.35-1.95-0.65-2.96-0.9c-0.28-0.08-0.57-0.14-0.86-0.2c-0.49-0.11-0.98-0.2-1.47-0.28c-0.19-0.03-0.38-0.06-0.58-0.08
			c-0.02-0.01-0.03-0.01-0.05-0.01c-0.29-0.05-0.59-0.08-0.89-0.11c-0.07-0.01-0.15-0.01-0.22-0.02c-0.08-0.01-0.15-0.02-0.23-0.02
			c-0.34-0.04-0.68-0.07-1.02-0.08c-0.11-0.01-0.21-0.02-0.31-0.01c-0.44-0.03-0.89-0.04-1.33-0.04h-0.01
			c-0.5,0-0.99,0.01-1.48,0.04c-0.39,0.02-0.79,0.05-1.18,0.09c-0.19,0.01-0.38,0.03-0.57,0.06c-0.03-0.01-0.05-0.01-0.07,0.01
			c-0.15,0-0.3,0.02-0.44,0.05c-0.02-0.01-0.04,0-0.06,0.01c-0.5,0.07-0.99,0.15-1.49,0.24c-2.21,0.42-4.33,1.1-6.34,1.99
			c-0.01-0.01-0.03-0.02-0.04-0.02c-0.13-0.08-0.26-0.16-0.4-0.24C477.91,464,421.06,398.34,381.3,311.62
			c-7.8-17.01-14.46-33.83-20.16-50.17h58.44c27.24,71.08,72.33,121.4,113.62,155.17c20.51,16.78,41.14,30.46,60.38,41.58
			c9.87,5.71,19.35,10.72,28.26,15.1c6.33-8.3,12.63-17.02,18.88-26.1c6.94-10.08,13.79-20.64,20.49-31.67
			c5.33-8.78,10.59-17.81,15.68-27.19c33.68-61.97,61.31-136.88,71.6-224.15l2.09-17.67H601.22z M577.12,150.06
			c6.68,0,12.09,5.41,12.09,12.09s-5.41,12.09-12.09,12.09c-6.68,0-12.09-5.41-12.09-12.09S570.44,150.06,577.12,150.06z
			 M562.96,522.76c6.72,0,12.17,5.45,12.17,12.17c0,6.72-5.45,12.17-12.17,12.17c-6.73,0-12.17-5.45-12.17-12.17
			C550.79,528.21,556.23,522.76,562.96,522.76z"/>
		
			<linearGradient id="SVGID_00000078028741334713074660000015375470345545266826_" gradientUnits="userSpaceOnUse" x1="577.1214" y1="136.2726" x2="577.1214" y2="621.5196">
			<stop  offset="0" style="stop-color:#667EEA"/>
			<stop  offset="1" style="stop-color:#764BA2"/>
		</linearGradient>
		<path style="fill:url(#SVGID_00000078028741334713074660000015375470345545266826_);" d="M599.64,144.38
			c-0.03-0.03-0.06-0.07-0.09-0.11c-0.16-0.19-0.32-0.38-0.48-0.57c-0.04-0.06-0.09-0.11-0.14-0.17c-0.49-0.58-1.02-1.13-1.55-1.66
			c-0.01-0.01-0.01-0.01-0.01-0.01c-0.26-0.26-0.52-0.51-0.78-0.76c-0.23-0.21-0.46-0.42-0.7-0.62c-0.26-0.22-0.52-0.44-0.78-0.66
			c-0.27-0.22-0.55-0.44-0.83-0.65c-0.37-0.28-0.74-0.54-1.12-0.8c-0.39-0.26-0.77-0.51-1.17-0.75c-0.32-0.19-0.65-0.38-0.98-0.57
			c-0.09-0.05-0.18-0.1-0.27-0.15c-0.39-0.21-0.78-0.41-1.19-0.6c-0.38-0.19-0.76-0.36-1.15-0.53c-0.78-0.33-1.58-0.63-2.39-0.89
			c-0.2-0.07-0.4-0.13-0.6-0.19c-1.35-0.41-2.74-0.72-4.16-0.92c-0.4-0.06-0.8-0.11-1.2-0.15c-0.45-0.05-0.9-0.08-1.35-0.1
			c-0.11-0.01-0.22-0.02-0.32-0.02c-0.41-0.02-0.81-0.03-1.22-0.03h-0.04c-1.48,0-2.94,0.11-4.37,0.33
			c-0.42,0.07-0.84,0.14-1.26,0.22c-0.54,0.11-1.06,0.23-1.59,0.36c-0.39,0.1-0.77,0.21-1.16,0.32c-0.37,0.11-0.74,0.23-1.1,0.36
			c-0.35,0.12-0.7,0.25-1.05,0.39c-10.63,4.21-18.15,14.58-18.15,26.7c0,15.84,12.84,28.68,28.68,28.68
			c15.84,0,28.68-12.84,28.68-28.68C605.8,155.44,603.49,149.27,599.64,144.38z M577.12,174.24c-6.68,0-12.09-5.41-12.09-12.09
			s5.41-12.09,12.09-12.09c6.68,0,12.09,5.41,12.09,12.09S583.8,174.24,577.12,174.24z"/>
		
			<linearGradient id="SVGID_00000149341981545017697130000003933398181596875195_" gradientUnits="userSpaceOnUse" x1="605.9814" y1="136.2937" x2="605.9814" y2="621.4941">
			<stop  offset="0" style="stop-color:#667EEA"/>
			<stop  offset="1" style="stop-color:#764BA2"/>
		</linearGradient>
		<path style="fill:url(#SVGID_00000149341981545017697130000003933398181596875195_);" d="M605.98,308.7
			c-1.2,0-2.39,0.07-3.55,0.22c-11.44,1.4-20.8,9.48-24.07,20.22c-0.71,2.34-1.14,4.8-1.22,7.35c-0.02,0.36-0.03,0.71-0.03,1.07
			c0,8.47,3.65,16.09,9.45,21.38c0.69,0.62,1.4,1.2,2.14,1.76c0.9,0.68,1.85,1.3,2.83,1.87c0.98,0.56,2,1.07,3.05,1.53
			c1.05,0.45,2.13,0.84,3.24,1.17c0.97,0.28,1.96,0.51,2.97,0.7c1.68,0.3,3.41,0.46,5.19,0.46c1.78,0,3.51-0.16,5.19-0.46
			c1.01-0.19,2-0.42,2.97-0.7c1.11-0.33,2.19-0.72,3.24-1.17c1.05-0.46,2.06-0.97,3.04-1.53c0.98-0.57,1.93-1.19,2.83-1.87
			c0.74-0.56,1.45-1.14,2.14-1.76c5.81-5.29,9.46-12.91,9.46-21.38C634.85,321.62,621.92,308.7,605.98,308.7z M605.98,349.73
			c-6.72,0-12.17-5.44-12.17-12.17c0-6.72,5.45-12.17,12.17-12.17c6.72,0,12.17,5.45,12.17,12.17
			C618.15,344.29,612.7,349.73,605.98,349.73z"/>
		
			<linearGradient id="SVGID_00000176028325454764027200000011944142811107078316_" gradientUnits="userSpaceOnUse" x1="562.9564" y1="136.2421" x2="562.9564" y2="621.5267">
			<stop  offset="0" style="stop-color:#667EEA"/>
			<stop  offset="1" style="stop-color:#764BA2"/>
		</linearGradient>
		<path style="fill:url(#SVGID_00000176028325454764027200000011944142811107078316_);" d="M590.07,525
			c-0.36-0.98-0.77-1.94-1.23-2.87c-0.16-0.31-0.32-0.62-0.48-0.92c-0.02-0.04-0.05-0.08-0.06-0.12c-0.19-0.33-0.38-0.66-0.58-0.99
			c-0.26-0.44-0.54-0.88-0.83-1.31c-0.26-0.38-0.52-0.76-0.8-1.13c-0.28-0.37-0.56-0.73-0.86-1.09c-0.29-0.36-0.59-0.71-0.9-1.05
			c-0.32-0.34-0.63-0.67-0.96-1c-0.33-0.33-0.66-0.65-1-0.96c-0.34-0.3-0.69-0.6-1.04-0.91c0,0,0,0-0.01,0
			c-0.71-0.58-1.45-1.13-2.21-1.66h-0.01c-0.77-0.52-1.56-1-2.37-1.45c-0.01,0.01-0.01,0.01-0.01,0c-0.41-0.22-0.83-0.43-1.25-0.63
			c-0.84-0.41-1.7-0.77-2.59-1.1c-0.96-0.35-1.95-0.65-2.96-0.9c-0.28-0.08-0.57-0.14-0.86-0.2c-0.49-0.11-0.98-0.2-1.47-0.28
			c-0.19-0.03-0.38-0.06-0.58-0.08c-0.02-0.01-0.03-0.01-0.05-0.01c-0.29-0.05-0.59-0.08-0.89-0.11c-0.07-0.01-0.15-0.01-0.22-0.02
			c-0.08-0.01-0.15-0.02-0.23-0.02c-0.34-0.04-0.68-0.07-1.02-0.08c-0.11-0.01-0.21-0.02-0.31-0.01c-0.44-0.03-0.89-0.04-1.33-0.04
			h-0.01c-0.5,0-0.99,0.01-1.48,0.04c-0.39,0.02-0.79,0.05-1.18,0.09c-0.19,0.01-0.38,0.03-0.57,0.06
			c-0.03-0.01-0.05-0.01-0.07,0.01c-0.15,0-0.3,0.02-0.44,0.05c-0.02-0.01-0.04,0-0.06,0.01c-0.5,0.06-1,0.13-1.49,0.24
			c-2.23,0.4-4.37,1.07-6.38,1.97c-10.05,4.44-17.07,14.45-17.18,26.11c-0.01,0.1-0.01,0.19-0.01,0.29c0,0.33,0.01,0.65,0.03,0.98
			c0.01,0.24,0.02,0.48,0.03,0.73c0.01,0.4,0.04,0.8,0.09,1.19c0.03,0.31,0.07,0.62,0.11,0.93c0.07,0.53,0.15,1.04,0.25,1.56
			c0.08,0.48,0.18,0.95,0.31,1.41c0.06,0.26,0.12,0.5,0.19,0.76c0.14,0.51,0.29,1,0.45,1.5c0.03,0.13,0.08,0.26,0.13,0.38
			c0.14,0.41,0.3,0.83,0.46,1.24c0.16,0.41,0.34,0.81,0.52,1.21c0.24,0.57,0.52,1.13,0.82,1.68c0.1,0.18,0.2,0.37,0.3,0.56
			c0.18,0.33,0.37,0.65,0.57,0.97c0.13,0.22,0.27,0.44,0.42,0.65c0.13,0.2,0.26,0.4,0.4,0.6c0.16,0.25,0.33,0.49,0.51,0.72
			c0.19,0.26,0.39,0.52,0.59,0.77c0.06,0.08,0.12,0.17,0.2,0.25c0.22,0.28,0.46,0.56,0.7,0.84c0.18,0.21,0.37,0.42,0.55,0.62
			c0.19,0.21,0.38,0.41,0.58,0.61c0.21,0.22,0.43,0.43,0.65,0.64c0.43,0.42,0.88,0.83,1.35,1.22c0.18,0.16,0.36,0.32,0.56,0.47
			c0.53,0.43,1.07,0.83,1.62,1.21c0.24,0.17,0.49,0.34,0.74,0.5c0.25,0.17,0.51,0.33,0.77,0.49c0.29,0.18,0.58,0.35,0.88,0.51
			c0.05,0.03,0.1,0.06,0.15,0.08c0.2,0.11,0.4,0.22,0.61,0.33c0.72,0.38,1.45,0.72,2.2,1.04c0.36,0.15,0.73,0.3,1.11,0.43
			c0.99,0.37,2,0.68,3.03,0.93c0.39,0.1,0.78,0.19,1.17,0.27c0.39,0.08,0.78,0.16,1.18,0.22c0.18,0.03,0.37,0.06,0.55,0.08
			c0.37,0.06,0.75,0.1,1.14,0.14c0.48,0.05,0.97,0.09,1.46,0.11c0.5,0.03,0.99,0.04,1.49,0.04c0.49,0,0.97-0.01,1.46-0.04h0.04
			c0.44-0.02,0.89-0.05,1.33-0.1c0.08-0.01,0.16-0.01,0.24-0.02c0.24-0.03,0.47-0.05,0.7-0.09c0.79-0.1,1.56-0.23,2.33-0.4
			c0.34-0.07,0.67-0.15,1-0.23c0.12-0.03,0.24-0.06,0.35-0.1c0.38-0.09,0.76-0.2,1.13-0.32c0.96-0.3,1.9-0.64,2.81-1.04
			c0.38-0.16,0.75-0.33,1.12-0.51c0.3-0.14,0.6-0.29,0.89-0.45c0.19-0.09,0.38-0.2,0.56-0.3c0.03-0.02,0.07-0.03,0.1-0.05
			c0.31-0.17,0.61-0.35,0.9-0.53c0.33-0.2,0.65-0.4,0.97-0.61c0.12-0.08,0.23-0.16,0.35-0.24c0.3-0.2,0.6-0.42,0.89-0.64
			c0.17-0.12,0.34-0.25,0.51-0.39c0.42-0.32,0.83-0.65,1.23-1.01c0.06-0.04,0.11-0.09,0.16-0.14c0.2-0.17,0.4-0.34,0.59-0.53
			c0.5-0.46,0.99-0.95,1.46-1.46c0.12-0.12,0.24-0.25,0.36-0.39c0.02-0.02,0.04-0.04,0.06-0.07c0.25-0.28,0.49-0.56,0.73-0.85
			c0.3-0.36,0.58-0.72,0.86-1.09s0.54-0.75,0.8-1.13s0.51-0.77,0.75-1.17c0.22-0.37,0.44-0.73,0.64-1.11
			c0.03-0.05,0.05-0.09,0.08-0.14c0.16-0.3,0.32-0.61,0.48-0.92c0.46-0.93,0.87-1.89,1.23-2.87c1.13-3.1,1.75-6.44,1.75-9.93
			S591.2,528.1,590.07,525z M562.96,547.1c-6.73,0-12.17-5.45-12.17-12.17c0-6.72,5.44-12.17,12.17-12.17
			c6.72,0,12.17,5.45,12.17,12.17C575.13,541.65,569.68,547.1,562.96,547.1z"/>
		
			<linearGradient id="SVGID_00000101066611037422850500000010537891735318659722_" gradientUnits="userSpaceOnUse" x1="481.3714" y1="136.2376" x2="481.3714" y2="621.5227">
			<stop  offset="0" style="stop-color:#667EEA"/>
			<stop  offset="1" style="stop-color:#764BA2"/>
		</linearGradient>
		<path style="fill:url(#SVGID_00000101066611037422850500000010537891735318659722_);" d="M502.74,567.81
			c-1.51-1.65-3.2-3.13-5.05-4.4c-0.27-0.18-0.54-0.36-0.82-0.54c-0.01-0.02-0.03-0.03-0.05-0.03c-0.28-0.18-0.56-0.35-0.85-0.52
			c-0.49-0.28-0.99-0.55-1.5-0.81c-0.39-0.2-0.78-0.38-1.18-0.57c-0.02-0.01-0.03-0.02-0.05-0.02c-0.03-0.01-0.06-0.03-0.09-0.04
			c-0.85-0.38-1.73-0.73-2.62-1.02c-0.03-0.01-0.05-0.02-0.08-0.03c-0.4-0.13-0.81-0.26-1.22-0.37c-0.55-0.16-1.1-0.3-1.66-0.43
			c-0.21-0.05-0.41-0.09-0.62-0.13c-0.29-0.07-0.58-0.12-0.87-0.16c-0.21-0.04-0.43-0.07-0.64-0.1c-0.37-0.06-0.74-0.1-1.12-0.14
			c-0.45-0.05-0.91-0.08-1.36-0.1c-0.07-0.01-0.14-0.01-0.21-0.01c-0.46-0.03-0.92-0.04-1.38-0.04h-0.06
			c-0.48,0-0.95,0.01-1.43,0.04c-0.26,0.01-0.53,0.03-0.79,0.06c-0.58,0.05-1.14,0.12-1.71,0.2c-2.75,0.37-5.39,1.13-7.84,2.24
			c-9.98,4.48-16.94,14.46-17.03,26.08c-0.01,0.08-0.01,0.17-0.01,0.25c0,13.57,9.36,24.96,21.99,28.03c0.43,0.1,0.87,0.2,1.31,0.29
			c0.88,0.19,1.78,0.32,2.69,0.4c0.95,0.1,1.91,0.15,2.88,0.15c0.44,0,0.89-0.01,1.33-0.04c0.26,0,0.51-0.02,0.77-0.05
			c0.16,0,0.33-0.01,0.49-0.03c0.35-0.03,0.7-0.07,1.05-0.12c0.02,0.01,0.04,0.01,0.06,0c0.4-0.05,0.79-0.11,1.18-0.18
			c0.02,0.01,0.04,0,0.06-0.01c0.29-0.04,0.59-0.1,0.88-0.16c0.47-0.09,0.93-0.2,1.39-0.32c0.47-0.12,0.92-0.25,1.37-0.39
			c0.46-0.14,0.9-0.29,1.35-0.45c11.05-4.05,18.94-14.67,18.94-27.12C510.24,579.75,507.4,572.94,502.74,567.81z M481.37,599.39
			c-6.72,0-12.17-5.45-12.17-12.17c0-6.72,5.45-12.17,12.17-12.17c6.72,0,12.17,5.45,12.17,12.17
			C493.54,593.94,488.09,599.39,481.37,599.39z"/>
	</g>
</g>
</svg>
